<?xml version="1.0" encoding="UTF-8"?>
<svg id="_レイヤー_1" data-name="レイヤー 1" xmlns="http://www.w3.org/2000/svg" viewBox="0 0 500 500">
  <defs>
    <style>
      .cls-1 {
        fill: #FF9209;
        stroke-width: 0px;
      }
    </style>
  </defs>
  <path class="cls-1" d="m439.03,261.73l58.35-11.73-58.35-11.73c-5.82-95.26-82.04-171.48-177.3-177.3l-11.73-58.35-11.73,58.35c-95.26,5.82-171.48,82.04-177.3,177.3l-58.35,11.73,58.35,11.73c2.91,47.61,23.4,90.48,55.07,122.17h0l.06.06c31.69,31.68,74.55,52.16,122.17,55.07l11.73,58.35,11.73-58.35c95.26-5.82,171.48-82.04,177.3-177.3Zm-69.78,100.47l-50.72-76.25,94.34-18.96c-3.78,36.69-19.68,69.77-43.62,95.21Zm43.62-129.18l-94.22-18.94,50.68-76.18c23.89,25.42,39.76,58.48,43.53,95.12Zm-50.76-102.35l-76.18,50.68-18.94-94.22c36.64,3.78,69.7,19.64,95.12,43.53Zm-129.09-43.53l-18.98,94.45-76.3-50.76c25.44-23.98,58.56-39.9,95.28-43.69Zm-102.19,50.59l50.76,76.31-94.46,18.99c3.79-36.73,19.71-69.85,43.69-95.29Zm-43.69,129.26l94.11,18.92-50.64,76.13c-23.85-25.41-39.69-58.44-43.46-95.04Zm50.84,102.42l76.13-50.64,18.92,94.11c-36.61-3.77-69.63-19.61-95.04-43.46Zm147.98-50.89l76.25,50.73c-25.44,23.94-58.53,39.84-95.22,43.63l18.97-94.35Z"/>
</svg>