<svg width="95" height="100" viewBox="0 0 95 100" fill="none" xmlns="http://www.w3.org/2000/svg">
    <g id="&#227;&#130;&#173;&#227;&#131;&#169;&#227;&#130;&#173;&#227;&#131;&#169;1">
    <path id="Rectangle 13" d="M49.2426 42.2132C66.2132 42.2132 66.2132 21 66.2132 21C66.2132 42.2132 83.1837 42.2132 83.1837 42.2132C66.2132 42.2132 66.2132 63.4264 66.2132 63.4264C66.2132 42.2132 49.2426 42.2132 49.2426 42.2132Z" fill="#FF500C"/>
    <path id="Rectangle 15" d="M65.8284 14.1422C77.1421 14.1422 77.1421 1.56538e-05 77.1421 1.56538e-05C77.1421 14.1421 88.4558 14.1422 88.4558 14.1422C77.1421 14.1422 77.1421 28.2843 77.1421 28.2843C77.1421 14.1421 65.8284 14.1422 65.8284 14.1422Z" fill="#FF500C"/>
    <path id="Rectangle 18" d="M72.697 57.1422C79.4853 57.1422 79.4853 48.6569 79.4853 48.6569C79.4853 57.1421 86.2735 57.1422 86.2735 57.1422C79.4853 57.1422 79.4853 65.6274 79.4853 65.6274C79.4853 57.1421 72.697 57.1422 72.697 57.1422Z" fill="#FF500C"/>
    <path id="Rectangle 17" d="M83.2728 29.4853C88.3639 29.4853 88.364 23.1213 88.364 23.1213C88.364 29.4853 93.4551 29.4853 93.4551 29.4853C88.3639 29.4853 88.364 35.8492 88.364 35.8492C88.364 29.4853 83.2728 29.4853 83.2728 29.4853Z" fill="#FF500C"/>
    <path id="Rectangle 14" d="M7.071 64.3554C35.3553 64.3553 35.3553 29 35.3553 29C35.3553 64.3553 63.6395 64.3554 63.6395 64.3554C35.3553 64.3554 35.3553 99.7107 35.3553 99.7107C35.3553 64.3553 7.071 64.3554 7.071 64.3554Z" fill="#FF500C"/>
    </g>
    </svg>
    